<svg xmlns="http://www.w3.org/2000/svg" width="25" height="24" viewBox="0 0 25 24" fill="none"><path d="M6.76986 19.6401C7.82473 19.6401 8.67986 18.7849 8.67986 17.7301C8.67986 16.6752 7.82473 15.8201 6.76986 15.8201C5.715 15.8201 4.85986 16.6752 4.85986 17.7301C4.85986 18.7849 5.715 19.6401 6.76986 19.6401Z" stroke="#00B412" stroke-width="1.91" stroke-miterlimit="10"></path><path d="M18.2298 19.6401C19.2847 19.6401 20.1398 18.7849 20.1398 17.7301C20.1398 16.6752 19.2847 15.8201 18.2298 15.8201C17.175 15.8201 16.3198 16.6752 16.3198 17.7301C16.3198 18.7849 17.175 19.6401 18.2298 19.6401Z" stroke="#00B412" stroke-width="1.91" stroke-miterlimit="10"></path><path d="M4.86 17.7301H2V4.36011H19.18V8.18011L21.09 12.0001L23 13.0701V17.7301H20.14" stroke="#00B412" stroke-width="1.91" stroke-miterlimit="10"></path><path d="M16.3202 17.73H8.68018" stroke="#00B412" stroke-width="1.91" stroke-miterlimit="10"></path><path d="M21.0899 11.9999H15.3599V8.17993H19.1799" stroke="#00B412" stroke-width="1.91" stroke-miterlimit="10"></path></svg>