<svg xmlns="http://www.w3.org/2000/svg" width="24" height="24" viewBox="0 0 24 24" fill="none"><path d="M6.26986 19.6401C7.32473 19.6401 8.17986 18.7849 8.17986 17.7301C8.17986 16.6752 7.32473 15.8201 6.26986 15.8201C5.215 15.8201 4.35986 16.6752 4.35986 17.7301C4.35986 18.7849 5.215 19.6401 6.26986 19.6401Z" stroke="#FF6D22" stroke-width="1.91" stroke-miterlimit="10"></path><path d="M17.7298 19.6401C18.7847 19.6401 19.6398 18.7849 19.6398 17.7301C19.6398 16.6752 18.7847 15.8201 17.7298 15.8201C16.675 15.8201 15.8198 16.6752 15.8198 17.7301C15.8198 18.7849 16.675 19.6401 17.7298 19.6401Z" stroke="#FF6D22" stroke-width="1.91" stroke-miterlimit="10"></path><path d="M4.36 17.7301H1.5V4.36011H18.68V8.18011L20.59 12.0001L22.5 13.0701V17.7301H19.64" stroke="#FF6D22" stroke-width="1.91" stroke-miterlimit="10"></path><path d="M15.8202 17.73H8.18018" stroke="#FF6D22" stroke-width="1.91" stroke-miterlimit="10"></path><path d="M20.5899 11.9999H14.8599V8.17993H18.6799" stroke="#FF6D22" stroke-width="1.91" stroke-miterlimit="10"></path></svg>